<?xml version="1.0" standalone="no"?>
<!DOCTYPE svg PUBLIC "-//W3C//DTD SVG 20010904//EN"
 "http://www.w3.org/TR/2001/REC-SVG-20010904/DTD/svg10.dtd">
<svg version="1.0" xmlns="http://www.w3.org/2000/svg"
 width="210.000000pt" height="210.000000pt" viewBox="0 0 210.000000 210.000000"
 preserveAspectRatio="xMidYMid meet">
<metadata>
Created by potrace 1.11, written by Peter Selinger 2001-2013
</metadata>
<g transform="translate(0.000000,210.000000) scale(0.100000,-0.100000)"
fill="#000000" stroke="none">
<path d="M525 1620 c-113 -18 -208 -73 -257 -149 -24 -38 -28 -55 -28 -113 l0
-69 113 3 112 3 5 59 c6 70 35 101 104 111 58 9 129 -22 144 -63 6 -16 10
-119 10 -247 l-1 -220 462 -3 462 -2 -3 82 -3 83 -337 3 -338 2 0 155 0 155
230 0 230 0 0 -35 0 -35 -180 0 -180 0 0 -85 0 -85 288 2 287 3 3 197 2 198
-417 3 c-396 3 -421 4 -473 24 -64 24 -164 34 -235 23z"/>
<path d="M783 891 c-81 -50 -37 -146 67 -146 104 0 148 96 67 146 -41 24 -93
24 -134 0z"/>
<path d="M1465 901 c-65 -28 -73 -100 -16 -138 43 -29 89 -29 132 0 72 48 39
135 -53 143 -24 2 -52 0 -63 -5z"/>
<path d="M633 584 c-9 -4 -13 -30 -13 -80 l0 -74 91 0 c81 0 90 2 87 18 -2 13
-16 18 -58 22 -54 6 -54 6 -15 10 32 4 40 9 40 25 0 16 -8 21 -40 25 -39 4
-39 4 15 10 47 4 55 8 55 25 0 18 -7 20 -75 22 -41 1 -81 -1 -87 -3z"/>
<path d="M817 583 c-4 -3 -7 -40 -7 -80 l0 -74 33 3 c28 3 32 6 32 34 l0 31
27 -20 c15 -11 29 -26 32 -34 8 -20 76 -17 76 4 0 15 1 15 18 0 21 -19 102
-23 133 -7 21 12 26 54 7 67 -7 4 -29 13 -48 20 -33 12 -34 12 -4 7 35 -6 65
19 47 37 -20 20 -91 23 -118 5 -47 -31 -24 -72 50 -91 20 -6 25 -9 13 -12 -9
-2 -26 1 -37 7 -15 8 -27 8 -41 0 -19 -10 -20 -8 -20 45 0 42 -4 57 -16 62
-24 9 -48 -10 -54 -41 l-5 -27 -38 36 c-35 33 -65 44 -80 28z"/>
<path d="M1207 584 c-4 -4 -7 -41 -7 -81 l0 -74 28 3 c21 2 28 9 30 31 3 22 8
27 32 27 24 0 29 -5 32 -27 2 -23 8 -29 36 -31 28 -3 32 0 32 22 l0 25 25 -24
c20 -21 34 -25 85 -25 51 0 65 4 85 25 50 49 20 116 -60 131 -43 8 -100 -11
-120 -39 -15 -21 -15 -21 -15 5 0 32 -13 42 -46 34 -17 -5 -24 -13 -24 -31 0
-21 -5 -25 -29 -25 -25 0 -30 4 -33 28 -3 26 -34 43 -51 26z m337 -67 c9 -15
7 -21 -8 -33 -41 -30 -96 -2 -75 37 13 25 67 22 83 -4z"/>
<path d="M1637 583 c-4 -3 -7 -39 -7 -80 l0 -73 30 0 c23 0 30 4 30 20 0 16 7
20 35 20 25 0 44 8 60 24 30 30 24 61 -16 81 -28 15 -120 21 -132 8z m101 -55
c-7 -20 -48 -23 -48 -4 0 11 9 16 26 16 16 0 24 -5 22 -12z"/>
</g>
</svg>
